<svg xmlns="http://www.w3.org/2000/svg" viewBox="0 0 283.5 283.5" style="enable-background:new 0 0 283.5 283.5" xml:space="preserve"><path d="M223 224.4c-2.3 2.3-4.9 3.4-8 3.4-3 0-5.7-1.1-8-3.4s-3.4-4.9-3.4-8c0-3 1.1-5.7 3.4-8s4.9-3.4 8-3.4c3 0 5.7 1.1 8 3.4s3.4 4.9 3.4 8c0 3-1.1 5.7-3.4 8z" style="fill:#fff"/><path d="M257.9 45.7c0 5.6-.9 11.5-2.6 17.7-1.7 6.2-5.1 11-10.3 14.4-5.4 3.5-11.6 6-18.7 7.6-7.1 1.6-17 2.4-29.7 2.4H94.1v37.3h74.4v42.5H94.1v32.1c0 18.7-5.3 31.6-15.8 38.5-5.4 3.5-11.5 5.7-18.3 6.8s-13.8 1.6-20.9 1.6h-6.2V87.9c0-10.7 1.9-18.9 5.7-24.7s8.4-9.9 13.9-12.4 11.5-4 18-4.4 12.4-.6 17.8-.6h169.6v-.1z" style="fill:#fff;stroke:#fff;stroke-miterlimit:10"/><path d="M137.5 72.6c0 .6-.1 1.1-.4 1.5-.2.4-.6.7-1 1s-.9.5-1.5.6-1.2.2-1.8.2h-11.4c-.6 0-1.2-.1-1.7-.2-.6-.2-1-.4-1.5-.7-.4-.3-.8-.6-1-1s-.4-.9-.4-1.4v-9.4c0-.5.1-.9.4-1.3.2-.4.6-.7 1-1s.9-.5 1.5-.7 1.1-.3 1.8-.3h11.3c1.4 0 2.6.3 3.4.8.8.5 1.3 1.4 1.3 2.5H122v9.3h10.4v-3h-3.7c-1.2 0-2.3-.3-3.2-.8-.9-.5-1.4-1.2-1.5-2v-.6h13.4v6.5h.1zm16.7 3.4-7.3-9.7h8v-3h-10.4v8.8c0 1.5-.4 2.5-1.3 3.1-.4.3-1 .5-1.5.5-.6.1-1.2.1-1.7.1h-.5V60h15.9c1.4 0 2.6.3 3.4.9.8.6 1.3 1.4 1.3 2.5v3c0 1-.4 1.8-1.1 2.4-.8.6-1.9.9-3.3 1l4.9 6.3h-6.4V76zm28.6-3.3c0 .6-.1 1.1-.4 1.5-.2.4-.6.7-1 1s-.9.5-1.5.6-1.2.2-1.8.2h-11.3c-.6 0-1.2-.1-1.8-.2-.6-.2-1-.4-1.5-.7-.4-.3-.7-.6-1-1-.2-.4-.4-.8-.4-1.4v-9.4c0-.5.1-.9.4-1.3.2-.4.6-.8 1-1.1s.9-.5 1.5-.7c.6-.1 1.1-.2 1.8-.2h11.3c1.4 0 2.5.3 3.4.8.9.6 1.3 1.4 1.3 2.5v9.4zm-5.1-9.4h-10.3v9.3h10.3v-9.3zm26.3 9.3c0 .5-.1 1-.4 1.4s-.6.7-1 1-.9.5-1.5.7-1.1.2-1.8.2h-10.1c-.6 0-1.2-.1-1.8-.2-.6-.2-1.1-.4-1.5-.7-.4-.3-.7-.6-1-1-.2-.4-.4-.9-.4-1.4V60h.6c1.3 0 2.4.2 3.3.6.8.4 1.3 1.1 1.3 2.1v9.9h9.2V60h5.1v12.6zm22.4-6.3c0 1.1-.5 2-1.6 2.5-1 .6-2.4.8-4.2.8H213c0-.3.1-.7.2-1.1.1-.4.3-.8.5-1.1.2-.3.5-.6.9-.8.4-.2.8-.3 1.4-.3h5.3v-3H211v8.9c0 1.5-.4 2.5-1.3 3.1-.4.3-1 .5-1.5.5-.6.1-1.2.1-1.7.1h-.5V60h15.9c1.4 0 2.5.3 3.4.9.9.6 1.3 1.4 1.3 2.5v2.9h-.2z" style="fill:#2d4895"/></svg>