<svg id="Слой_1" data-name="Слой 1" xmlns="http://www.w3.org/2000/svg" viewBox="0 0 204.292 204.414"><defs><style>.cls-1{fill:#223383}</style></defs><path class="cls-1" d="M122.496 160.794c-4.156 4.177-7.658 8.206-11.688 11.61-4.604 3.887-6.302 7.983-5.997 14.378.927 19.432-13.34 35.973-32.458 40.29-21.762 4.915-46.76-11.713-48.488-36.921a40.568 40.568 0 0 1 46.251-43.222 4.321 4.321 0 0 0 4.142-1.424q35.591-35.685 71.198-71.354a4.986 4.986 0 0 0 1.351-3.604c-3.002-22.906 11.669-42.535 34.43-46.465 5.122-.885 9.865-.216 14.718.81 3.55.75 4.374 3.569 1.776 6.202-6.176 6.26-12.372 12.504-18.68 18.629a3.807 3.807 0 0 0-1.103 4.752c1.536 4.026 2.686 8.2 4.224 12.226a4.968 4.968 0 0 0 2.531 2.616c4.262 1.616 8.656 2.88 12.944 4.432a3.046 3.046 0 0 0 3.711-.868c6.11-6.209 12.304-12.336 18.466-18.492 1.242-1.24 2.627-2.917 4.422-1.818a6.724 6.724 0 0 1 2.497 3.877c6.241 25.076-15.976 52.347-45.1 48.249a4.74 4.74 0 0 0-4.59 1.53c-5.21 5.332-10.542 10.548-16.137 16.115 2.183 2.182 4.203 4.204 6.226 6.224 3.468 3.463 3.497 4.132.33 7.774-1.752 2.014-1.85 4.148-.264 5.78 1.59 1.638 3.758 1.606 5.79-.085 3.895-3.243 4.369-3.227 7.967.37 12.615 12.61 25.164 25.288 37.873 37.803a29.355 29.355 0 0 1 8.845 16.092 26.138 26.138 0 0 1-6.592 22.132c-6.064 6.887-13.922 10.313-23.011 9.547a25.28 25.28 0 0 1-15.819-7.166q-20.698-20.482-41.238-41.123c-1.999-2.001-1.915-3.5-.013-5.623a18.371 18.371 0 0 0 1.47-1.683 3.61 3.61 0 0 0-.331-4.982 3.682 3.682 0 0 0-5.176-.421c-.205.14-.397.3-.588.459-3.953 3.29-4.376 3.298-7.947-.323-1.966-1.993-3.839-4.079-5.942-6.323Zm98.66-98.175c-1.028.836-1.716 1.304-2.296 1.88-5.06 5.03-10.128 10.052-15.13 15.14a4.437 4.437 0 0 1-5.153 1.214c-6.032-2.095-12.102-4.086-18.176-6.06a5.262 5.262 0 0 1-3.668-3.682q-2.888-9.003-5.986-17.939a4.768 4.768 0 0 1 1.334-5.583c5.05-4.92 9.995-9.95 14.966-14.952.58-.583 1.067-1.26 1.911-2.267-1.35-.067-2.078-.146-2.804-.133a34.075 34.075 0 0 0-32.636 40.723c.495 2.4.25 4.206-1.6 6.047q-37.566 37.408-74.995 74.954a6.134 6.134 0 0 1-5.536 1.804c-4.495-.405-9.157-.853-13.555-.12-18.621 3.107-30.98 21.343-27.485 39.982 3.5 18.662 21.635 31.15 40.054 27.58 19.01-3.684 31.427-21.848 27.546-40.462a6.28 6.28 0 0 1 1.864-6.446q37.13-36.965 74.096-74.093a7.014 7.014 0 0 1 7.043-2.226c12.713 2.353 23.472-1.529 32.004-11.141 5.913-6.661 8.58-14.617 8.202-24.22Zm-94.558 93.757c1.72 1.638 3.056 2.759 4.205 4.046 1.094 1.227 1.942 1.513 3.537.566a10.327 10.327 0 0 1 14.139 13.981c-.873 1.518-.785 2.343.45 3.569q18.186 18.039 36.229 36.221c1.443 1.456 2.292 1.492 3.756.005 8.552-8.68 17.205-17.261 25.818-25.881.515-.516.981-1.08 1.497-1.652a5.54 5.54 0 0 0-.588-.938q-18.87-18.937-37.802-37.813a2.487 2.487 0 0 0-2.264-.174c-4.866 2.451-9.59 1.935-13.034-1.571-3.379-3.44-3.846-8.04-1.389-12.825.28-.546.447-1.576.143-1.923-1.5-1.716-3.177-3.278-5.088-5.191l-29.61 29.58Zm67.101 63.44c5.917 3.596 16.633.937 22.382-5.704 5.146-5.945 6.88-16.358 3.686-20.21L193.7 219.816Z" transform="translate(-23.764 -23.67)"/><path class="cls-1" d="m100.829 109.433-4.79 4.788c-.72-.688-1.373-1.288-2-1.915-13.143-13.139-26.255-26.31-39.467-39.378a8.915 8.915 0 0 0-4.792-2.706c-8.53-.802-13.934-5.14-17.24-13.021-2.07-4.936-5.175-9.448-7.927-14.084a3.843 3.843 0 0 1 .675-5.328q6.293-6.202 12.496-12.496c1.643-1.659 3.066-2.02 5.35-.621 7 4.288 14.193 8.263 21.359 12.275 1.867 1.045 3.24 2.338 3.461 4.52.834 8.215 5.26 14.141 11.156 19.696 11.286 10.635 22.029 21.847 33.01 32.806.642.64 1.407 1.155 2.326 1.9l-4.833 4.645c-.698-.661-1.362-1.263-1.995-1.896-13.206-13.193-26.376-26.422-39.644-39.553-2.089-2.067-3.81-4.227-4.034-7.172-.522-6.889-4.052-11.235-10.412-13.87-3.802-1.573-7.202-4.099-10.877-6.016a2.962 2.962 0 0 0-2.691.318c-2.639 2.394-5.055 5.03-7.63 7.5a2.079 2.079 0 0 0-.444 3.003c3.35 5.728 6.555 11.543 9.96 17.237a4.49 4.49 0 0 0 2.822 2.028c8.315.947 14.269 5.481 19.886 11.413C75.558 85.13 87.103 96.242 98.44 107.55a27.585 27.585 0 0 0 2.389 1.884Zm-36.364 97.904c-3.065.001-6.132-.057-9.196.022a4.412 4.412 0 0 1-4.31-2.326q-4.606-7.815-9.319-15.566a4.106 4.106 0 0 1-.034-4.656c3.18-5.241 6.196-10.586 9.533-15.723a5.436 5.436 0 0 1 3.809-2.112c6.289-.22 12.59-.08 18.886-.113a4.294 4.294 0 0 1 4.055 2.327q4.601 7.817 9.333 15.556a4.096 4.096 0 0 1 .03 4.655c-3.181 5.24-6.215 10.574-9.559 15.707a5.7 5.7 0 0 1-3.793 2.13c-3.117.31-6.287.099-9.435.1Zm-.157-6.271c2.802-.135 6.114.604 8.263-.65 2.156-1.258 2.919-4.698 4.705-6.836 3.643-4.364 3.115-7.98.278-12.935-3.268-5.707-6.843-7.646-13.39-7.618-6.21.026-9.475 1.933-12.603 7.214-3.002 5.069-3.34 8.586-.008 13.643 3.274 4.968 6.017 9.114 12.755 7.182Zm26.064-36.178-3.907-3.692 74.567-74.56 3.737 3.864Zm71.19.51 3.822-4.016 33.737 33.812-4.492 3.362-33.067-33.158Z" transform="translate(-23.764 -23.67)"/></svg>