<svg version="1.1" id="Слой_1" xmlns="http://www.w3.org/2000/svg" x="0" y="0" viewBox="0 0 255.1 255.1" style="enable-background:new 0 0 255.1 255.1" xml:space="preserve"><style>.st2{fill:#223383}</style><path class="st2" d="M44 82.9V70.5c0-5.3 2.7-8.1 8-8.1h132.1c5.2 0 7.9 2.7 8 8.1.1 7.9 0 15.8 0 23.7v3.2c1.1.1 2 .1 2.8.1 8.4 0 16.8.1 25.2 0 5-.1 8.5 1.9 11 6.4 6.7 12.3 13.5 24.4 20.4 36.6 2.5 4.5 3.7 9.2 3.7 14.3-.1 6.7 0 13.3 0 20 0 5-2.7 8-7.7 7.7-4.3-.2-6.7.5-8.4 5.2-2.9 8.2-11.8 13.2-20.2 12.7-9.5-.6-17.2-6.3-19.9-15.1-.6-2.1-1.5-2.8-3.7-2.8-22.3.1-44.6.1-66.9 0-2 0-2.8.5-3.4 2.5-2.7 9.2-11 15.3-20.7 15.5-9.3.1-17.9-6.2-20.7-15.4-.6-1.9-1.4-2.6-3.4-2.5-10.2.1-20.3.1-30.5 0-4.2 0-5.5-1.2-5.5-5.5v-25.3H13.6c-3.5 0-5.5-3.1-3.7-5.6.7-1 2.2-1.7 3.5-1.9 2.4-.3 4.8-.1 7.2-.1h40.5c.9 0 1.8 0 2.7.1 2.5.2 3.9 1.7 3.8 4-.1 2.2-1.5 3.5-4 3.5-3.7.1-7.5 0-11.4 0v22.9c.6.1 1.3.2 1.9.2h26.5c1.5 0 2.3-.3 2.8-2 2.8-9.6 11.2-15.9 20.9-16 9.7 0 18.1 6.2 20.9 15.8.5 1.7 1.2 2.2 2.9 2.2 18-.1 36-.1 54 0 2.1 0 2.5-.7 2.5-2.6-.1-13.9 0-27.8 0-41.7 0-19.1.1-38.1.1-57.2v-3.2H52.3v12.6h22.6c2.9 0 4.6 1.4 4.7 3.7.1 2.4-1.7 3.9-4.7 3.9H27.7c-3 0-4.5-1.4-4.5-3.8s1.6-3.7 4.5-3.8c5.1.1 10.5.1 16.3.1zm148.3 22.5v69.3c5.2.7 5.2.7 6.9-3.7 3.3-8.4 11.3-14 20.3-14 8.8 0 16.9 5.5 20.2 13.8 1.7 4.3 1.7 4.3 6.4 4.2.3 0 .6-.1 1.1-.2.1-.6.1-1 .1-1.5 0-6.7.2-13.5-.1-20.2-.1-2.4-.7-5-1.9-7.1-7-12.9-14.2-25.8-21.4-38.6-.5-.9-1.7-1.8-2.7-1.8-9.5-.2-19.1-.2-28.9-.2zm-74.4 73.3c0-7.8-6.2-13.9-14-13.8-7.7 0-13.9 6.1-13.8 13.7 0 8.2 6 14.4 13.9 14.4 7.8-.1 14-6.4 13.9-14.3zm115.5.3c0-8-6-14.2-13.9-14.2-7.7 0-13.6 6.1-14 13.6-.3 6.5 4.7 14.3 13.9 14.5 7.7.2 14-6.2 14-13.9z"/><path class="st2" d="M44 126v-22.4c.1-2.6 1.6-4.3 3.9-4.3 2.2 0 3.8 1.7 3.9 4.3.1 3.1 0 6.2 0 9.2 0 4.2 0 8.3.1 12.5 0 .1.1.3.3.8h50.7c3 0 4.6 1 4.9 3.1.3 2.1-.7 3.8-2.7 4.4-.8.2-1.6.2-2.5.2H33.2c-2.3-.3-3.7-1.9-3.7-4s1.6-3.7 3.9-3.8H44zm-26.6-21h13c2.8 0 4.3 1.3 4.4 3.6.1 2.4-1.5 4-4.3 4.1-8.8.1-17.6.1-26.5 0-3.1 0-4.1-1.3-4-4.3.1-2.4 1.2-3.3 4.2-3.4h13.2z"/></svg>