<svg version="1.1" id="Слой_1" xmlns="http://www.w3.org/2000/svg" x="0" y="0" viewBox="0 0 255.1 255.1" style="enable-background:new 0 0 255.1 255.1" xml:space="preserve"><style>.st2{fill:#223383}</style><path class="st2" d="M189.1 121.1c5.7 1.1 11.1 1.6 16.2 3.1 24.7 7.3 40.8 30.7 39.2 56.3-1.6 26.2-21.1 47.9-47 51.4-23.2 3.1-41.6-5.5-54.9-24.9-1.1-1.7-2.2-2.3-4.2-2.3-36.9.1-73.8 0-110.7 0-9.3 0-14.4-5-14.4-14.4v-147c0-9.3 5.1-14.4 14.4-14.4h147c9.2 0 14.4 5.3 14.4 14.5v77.7zm-52.2 74.8c-.4-1.4-.7-2.4-.9-3.4-2.2-7.6-2.9-15.3-1.7-23 3.6-23.6 20.2-41.3 43.5-46.4 2-.4 2.4-1.2 2.4-3-.1-12.6-.1-25.2 0-37.7 0-2.2-.8-2.7-2.8-2.6-13.8.1-27.5 0-41.3 0-.8 0-1.6.1-2.6.2v21.8c0 5.3-3 7.2-7.7 4.9-7.5-3.7-15-7.4-22.4-11.2-1.6-.8-2.9-.8-4.4 0-7.4 3.8-14.9 7.5-22.4 11.2-4.6 2.3-7.7.4-7.7-4.7V82.7c0-.9-.1-1.8-.2-2.9h-2.8c-13.5 0-27 .1-40.5-.1-2.4 0-3.1.7-3.1 3.1.1 35.7 0 71.4.1 107.2 0 5 1 5.9 5.9 5.9h108.6zm98.7-18.6c-.1-25.9-20.8-46.6-46.5-46.5-25.7.1-46.5 20.9-46.4 46.6 0 25.5 21.1 46.3 46.8 46.3 25.4-.1 46.2-21.1 46.1-46.4zM77.8 95.8c7-3.5 13.5-6.6 19.8-10 2.5-1.3 4.7-1.3 7.2 0 5.5 2.9 11.1 5.6 16.7 8.4.9.4 1.8.8 2.8 1.2V37.9h-2.7c-13.6 0-27.2.1-40.8-.1-2.4 0-3.1.7-3.1 3.1.1 17.1.1 34.3.1 51.4v3.5zM180 70.6c.1-1 .1-1.8.1-2.5V43.5c0-4.1-1.4-5.4-5.5-5.4h-38.5c-.8 0-1.6.1-2.5.1v32.4H180zm-157.7 0h46.4V38.3c-.9-.1-1.6-.1-2.4-.1H27.5c-4 0-5.2 1.3-5.2 5.3v27.1z"/><path class="st2" d="M101.1 177H83.4c-3.3 0-5.1-1.5-5.2-4.2-.1-2.8 1.8-4.7 5-4.7 11.9-.1 23.8 0 35.7 0 3.2 0 5.3 1.9 5.3 4.6 0 2.7-2.1 4.4-5.4 4.4-5.9-.1-11.8-.1-17.7-.1zm82 8.4c.7-1.1 1.1-2.2 1.9-3 6.8-6.9 13.7-13.7 20.6-20.6.7-.7 1.4-1.4 2.3-2 2-1.4 4.3-1.2 5.9.6 1.4 1.6 1.5 4 .1 5.8-.4.5-.9 1-1.4 1.5l-25.6 25.6c-3.3 3.3-5.3 3.3-8.5 0-4.2-4.2-8.4-8.3-12.5-12.5-2.5-2.5-2.8-5.1-.8-7.1 1.9-1.9 4.7-1.7 7.1.7 3.4 3.4 6.7 6.8 10.9 11z"/></svg>