<svg version="1.1" id="Слой_1" xmlns="http://www.w3.org/2000/svg" x="0" y="0" viewBox="0 0 255.1 255.1" style="enable-background:new 0 0 255.1 255.1" xml:space="preserve"><style>.st2{fill:#223383}</style><path class="st2" d="M191.9 136.5v77.6c0 3.1 0 3.4 3.2 3.1 9.1-1.1 14.9 2.8 17.8 11.4.7 2 1.8 3.7 2.6 5.7 1.2 3-.1 5-3.4 5h-61.7c-3.4 0-4.7-2.1-3.3-5.2 1.5-3.4 3.1-6.7 4.8-10 2.3-4.4 5.9-6.8 11-6.8 2 0 4-.1 6 0 1.3 0 1.9-.4 1.8-1.7V62.1c0-11.7-7-21.3-17.7-24.3-15.2-4.2-30.2 6.6-30.8 22.5-.3 6.4-.1 12.8-.1 19.2V122c0 2 .4 2.8 2.6 3 6.4.6 11.5 6.1 11.7 12.6.2 10 .1 20 .1 30 0 1.7.5 2.8 1.7 4 11.6 11.4 15.3 25.2 10.4 40.6-5 15.4-16.2 24.3-32.2 26.8-1.5.2-3.1.2-4.6.2H68.4c-7.4 0-12.4-3.5-15.3-10.1-.5-1.2-1.2-1.6-2.4-1.5-2.3.1-4.6.1-6.9 0-3.1-.1-4.2-1.2-4.3-4.2v-21.7c0-2.9 1.1-4 4.1-4 2 0 4-.1 6 0s2.5-.7 2.5-2.5c-.1-4.3-.1-8.6.1-12.9.9-26.8 19.9-49.9 46-55.8 2.2-.5 3-1.3 3-3.6-.1-21.5-.3-43 .1-64.5.4-22.5 20.7-42.1 43.2-42.5 20.2-.4 34.6 8.7 43.6 26.6 3.1 6.3 4.1 13.1 4.1 20.2-.4 24.5-.3 49.2-.3 73.8zm-62.6 28.8c.2-.5.3-.8.3-1.1 0-8.6.1-17.3 0-25.9-.1-4.1-2.9-6.7-7-6.8-3.5-.1-6.9 0-10.4 0-8.8 0-17.2 1.7-24.9 5.9-16.8 9.1-26.9 23.2-28.4 42.2-1.1 14.4-.5 28.9-.4 43.4 0 6.1 3.9 9.7 10 9.7h18c.6 0 1.2-.1 2.3-.2-8.3-6.3-13.7-14-15.8-23.8-2.1-9.9-.8-19.3 4.3-28.1 4.3-7.4 10.4-12.9 18.3-16.3 11.3-5 22.5-4.3 33.7 1zm-18.2 67.4c17.9 0 32.5-14.5 32.6-32.4.1-17.8-14.5-32.6-32.4-32.6-18-.1-32.7 14.5-32.7 32.5 0 17.9 14.6 32.5 32.5 32.5zM177.4 72v140.8c0 4.5 0 4.5 4.5 4.5 3.2 0 3.2 0 3.2-3.1V72.1c-2.7-.1-5-.1-7.7-.1zm-34.5-49.3h-1.7c-17.7 1.9-33.1 17.9-33.5 35.7-.5 20.5-.2 41-.2 61.4 0 4.9 0 4.8 5 4.9 2.2 0 2.9-.6 2.9-2.8-.1-19.8 0-39.6-.1-59.4 0-4.6.5-9.1 2.4-13.3 4.5-10.2 12.2-16.4 23.1-18.6.8-.2 2-.8 2-1.2.2-2.2.1-4.4.1-6.7zm6.8-.1c0 2 .1 3.6 0 5.1-.2 2 .6 2.7 2.6 3.1 13.5 2.7 23.1 13.1 24.9 26.8.3 2.4.3 4.8.5 7.3.5.1.8.2 1.1.2h4.6c1.4.1 1.8-.5 1.9-1.9.3-13.3-4.5-24.3-15-32.7-6-4.5-12.7-7.2-20.6-7.9zm57.5 210c-.6-1.4-1.1-2.3-1.5-3.3-1.4-4-4-5.4-8.3-5.3-10.8.2-21.6.1-32.4.1-5.5 0-8.6 2.8-9.2 8.6 17-.1 34-.1 51.4-.1zM51.7 212.8c0-2.2.1-4.5-.1-6.7 0-.6-.9-1.4-1.5-1.6-.8-.3-1.9-.3-2.7 0-.6.2-1.4 1-1.4 1.5-.1 4.5 0 8.9-.1 13.4 0 1.2.6 1.6 1.7 1.6.8 0 1.5-.1 2.3 0 1.5.1 1.9-.6 1.8-1.9v-6.3z"/><path class="st2" d="M85.8 200.2c0-14 11.4-25.4 25.4-25.4 14 0 25.5 11.6 25.4 25.5-.1 14-11.5 25.2-25.4 25.2-14 .1-25.4-11.3-25.4-25.3zm25.5 18.6c10.2-.1 18.5-8.4 18.5-18.6 0-10.2-8.6-18.7-18.8-18.6-10.1.1-18.5 8.5-18.5 18.6.1 10.2 8.5 18.6 18.8 18.6z"/></svg>