<?xml version="1.0" encoding="utf-8"?>
<!-- Generator: Adobe Illustrator 22.0.1, SVG Export Plug-In . SVG Version: 6.00 Build 0)  -->
<svg version="1.1" id="Слой_1" xmlns="http://www.w3.org/2000/svg" xmlns:xlink="http://www.w3.org/1999/xlink" x="0px" y="0px"
	 viewBox="0 0 1198.9 520" style="enable-background:new 0 0 1198.9 520;" xml:space="preserve">
<style type="text/css">
	.st0{fill-rule:evenodd;clip-rule:evenodd;fill:#FFFFFF;}
</style>
<path class="st0" d="M265.1,440.9c0,5.6-1.2,10.4-3.6,14.3c-2.4,3.9-5.6,7.3-9.7,10c-4.1,2.7-8.9,4.7-14.5,6.1
	c-5.6,1.3-11.5,2-17.7,2H108.5c-6,0-11.7-0.8-17.1-2.3c-5.4-1.6-10.1-3.7-14.2-6.5c-4.1-2.8-7.3-6.2-9.7-10.1
	c-2.4-3.9-3.6-8.4-3.6-13.4v-92c0-4.6,1.2-8.8,3.6-12.6c2.4-3.8,5.6-7.2,9.7-10c4.1-2.8,8.8-5,14.2-6.7c5.4-1.7,11.2-2.5,17.4-2.5
	h110.8c14,0,25.1,2.6,33.2,7.9c8.2,5.3,12.3,13.6,12.3,24.8H113.9v91.4h101.5v-29.3h-35.9c-12,0-22.3-2.6-31-7.8
	c-8.7-5.2-13.5-11.6-14.5-19.3v-5.9h131.1V440.9L265.1,440.9z M428.3,473.6l-71.5-94.8h77.8v-29H333.1v86.4
	c0,14.8-4.3,24.7-12.9,29.9c-4.4,2.7-9.4,4.5-15,5.3c-5.6,0.8-11.3,1.2-17.1,1.2h-5.1V317.1h155.7c14,0,25.1,2.8,33.2,8.4
	c8.2,5.6,12.3,13.7,12.3,24.3v29.6c0,10-3.7,17.8-11.2,23.4c-7.5,5.6-18.1,8.7-31.9,9.4l47.9,61.4H428.3L428.3,473.6z M708.2,441.9
	c0,5.6-1.2,10.3-3.6,14.2c-2.4,3.8-5.6,7.1-9.7,9.7c-4.1,2.6-8.9,4.5-14.5,5.8c-5.6,1.2-11.6,1.9-18,1.9H551.6
	c-6.2,0-12-0.8-17.4-2.3c-5.4-1.6-10.1-3.7-14.2-6.5c-4.1-2.8-7.3-6.1-9.6-10c-2.3-3.8-3.4-8.3-3.4-13.3v-92.3
	c0-4.6,1.1-8.9,3.4-12.9c2.3-4.1,5.5-7.5,9.6-10.3c4.1-2.8,8.8-4.9,14.2-6.4c5.4-1.5,11.2-2.2,17.4-2.2h110.8
	c13.6,0,24.6,2.8,33.1,8.3c8.5,5.5,12.7,13.6,12.7,24.2V441.9L708.2,441.9z M658.2,349.9H557v91.4h101.2V349.9L658.2,349.9z
	 M915.7,440.9c0,5-1.2,9.5-3.7,13.4c-2.5,3.9-5.8,7.3-9.9,10.1c-4.1,2.8-8.8,5-14.2,6.5c-5.4,1.6-11.2,2.3-17.4,2.3h-99.1
	c-6.2,0-12-0.8-17.5-2.3c-5.5-1.6-10.3-3.7-14.4-6.5c-4.1-2.8-7.3-6.2-9.7-10.1c-2.4-3.9-3.6-8.4-3.6-13.4V317.1h5.4
	c13.2,0,23.9,2,32.2,5.9c8.3,3.9,12.4,10.9,12.4,20.9v97.3h89.5V317.1h50V440.9L915.7,440.9z M1134.8,378.9c0,11-5.1,19.3-15.3,24.8
	c-10.2,5.5-23.9,8.3-41,8.3h-74.8c0-3.3,0.5-7,1.6-11.1c1.1-4.1,2.8-7.6,5.1-10.8c2.3-3.1,5.3-5.8,9.1-8c3.8-2.2,8.3-3.3,13.5-3.3
	h51.5v-29H983.6v87c0,14.6-4.3,24.5-12.9,29.9c-4.4,2.7-9.4,4.5-15,5.3c-5.6,0.8-11.3,1.2-17.1,1.2h-5.1V317.1H1089
	c13.6,0,24.6,2.8,33.1,8.4c8.5,5.6,12.7,13.7,12.7,24.3V378.9z"/>
<path class="st0" d="M289.3,46.3c0,5.8-0.9,12-2.7,18.3c-1.8,6.4-5.3,11.4-10.7,15c-5.6,3.6-12.1,6.3-19.4,7.9
	c-7.4,1.7-17.6,2.5-30.8,2.5H119.1v38.8h77.3v44.2h-77.3v33.4c0,19.5-5.5,32.8-16.4,40c-5.6,3.6-11.9,6-19,7.1
	c-7.1,1.1-14.3,1.7-21.7,1.7h-6.5V90.1c0-11.1,2-19.7,5.9-25.6c3.9-6,8.8-10.3,14.5-12.9c5.7-2.6,11.9-4.2,18.7-4.6
	c6.7-0.4,12.9-0.6,18.5-0.6H289.3L289.3,46.3z M552.7,213.1c0,7.5-1.5,13.8-4.6,19c-3.1,5.1-7.2,9.4-12.4,12.9
	c-5.2,3.5-11.4,6-18.5,7.7c-7.1,1.7-14.7,2.5-22.8,2.5H353.6c-7.9,0-15.2-1-22.1-3.1c-6.8-2.1-12.9-5-18.1-8.8
	c-5.2-3.8-9.3-8.2-12.2-13.3c-2.9-5.1-4.4-11-4.4-17.7V88.9c0-6.1,1.5-11.9,4.4-17.3c2.9-5.4,7-10,12.2-13.8
	c5.2-3.8,11.2-6.6,18.1-8.5c6.9-1.9,14.2-2.9,22.1-2.9h140.9c17.3,0,31.3,3.7,42.1,11c10.8,7.4,16.2,18.1,16.2,32.3V213.1
	L552.7,213.1z M489.2,90.1H360.5v122.1h128.7V90.1L489.2,90.1z M760.2,255.6l-91-126.7h99V90.1H639.2v115.5c0,19.7-5.5,33.1-16.4,40
	c-5.6,3.6-11.9,6-19,7.1c-7.1,1.1-14.3,1.7-21.7,1.7h-6.5v-208h198c17.8,0,31.9,3.7,42.3,11.3c10.4,7.5,15.6,18.3,15.6,32.5v39.6
	c0,13.3-4.8,23.8-14.3,31.3c-9.5,7.5-23,11.7-40.5,12.5l60.9,82.1H760.2L760.2,255.6z M917.1,255.2c-7.6,0-14.8-1-21.7-3.1
	c-6.9-2.1-12.9-5-18.1-8.8c-5.2-3.8-9.3-8.3-12.4-13.5c-3-5.3-4.6-11.3-4.6-17.9V46.3h63.6v208.9H917.1L917.1,255.2z M1143.2,212.3
	c-0.5,7.5-2.4,14-5.7,19.6c-3.3,5.6-7.6,10-12.8,13.3c-5.2,3.3-11.3,5.8-18.3,7.5c-7,1.7-14.5,2.5-22.6,2.5h-78.4
	c-8.1,0-15.7-0.9-22.8-2.7c-7.1-1.8-13.3-4.5-18.7-8.1c-5.3-3.6-9.5-8.1-12.6-13.3c-3-5.3-4.6-11.7-4.6-19.2V46.3h5.7
	c17.8,0,31.9,3.7,42.3,11.3c10.4,7.5,15.6,18.3,15.6,32.5v122.1H1143.2z"/>
</svg>
