<?xml version="1.0" encoding="utf-8"?>
<!-- Generator: Adobe Illustrator 22.0.1, SVG Export Plug-In . SVG Version: 6.00 Build 0)  -->
<svg version="1.1" id="Слой_1" xmlns="http://www.w3.org/2000/svg" xmlns:xlink="http://www.w3.org/1999/xlink" x="0px" y="0px"
	 viewBox="0 0 283.5 283.5" style="enable-background:new 0 0 283.5 283.5;" xml:space="preserve">
<style type="text/css">
	.st0{fill:#FFFFFF;}
	.st1{fill:#FFFFFF;stroke:#FFFFFF;stroke-miterlimit:10;}
	.st2{fill:#2D4895;}
</style>
<g>
	<path class="st0" d="M223,224.4c-2.3,2.3-4.9,3.4-8,3.4c-3,0-5.7-1.1-8-3.4c-2.3-2.3-3.4-4.9-3.4-8c0-3,1.1-5.7,3.4-8
		c2.3-2.3,4.9-3.4,8-3.4c3,0,5.7,1.1,8,3.4c2.3,2.3,3.4,4.9,3.4,8C226.4,219.4,225.3,222.1,223,224.4z"/>
</g>
<path class="st1" d="M257.9,45.7c0,5.6-0.9,11.5-2.6,17.7c-1.7,6.2-5.1,11-10.3,14.4c-5.4,3.5-11.6,6-18.7,7.6
	c-7.1,1.6-17,2.4-29.7,2.4H94.1v37.3h74.4v42.5H94.1v32.1c0,18.7-5.3,31.6-15.8,38.5c-5.4,3.5-11.5,5.7-18.3,6.8s-13.8,1.6-20.9,1.6
	h-6.2V87.9c0-10.7,1.9-18.9,5.7-24.7s8.4-9.9,13.9-12.4s11.5-4,18-4.4s12.4-0.6,17.8-0.6h169.6L257.9,45.7L257.9,45.7z"/>
<path class="st2" d="M137.5,72.6c0,0.6-0.1,1.1-0.4,1.5c-0.2,0.4-0.6,0.7-1,1s-0.9,0.5-1.5,0.6s-1.2,0.2-1.8,0.2h-11.4
	c-0.6,0-1.2-0.1-1.7-0.2c-0.6-0.2-1-0.4-1.5-0.7c-0.4-0.3-0.8-0.6-1-1s-0.4-0.9-0.4-1.4v-9.4c0-0.5,0.1-0.9,0.4-1.3
	c0.2-0.4,0.6-0.7,1-1s0.9-0.5,1.5-0.7s1.1-0.3,1.8-0.3h11.3c1.4,0,2.6,0.3,3.4,0.8c0.8,0.5,1.3,1.4,1.3,2.5H122v9.3h10.4v-3h-3.7
	c-1.2,0-2.3-0.3-3.2-0.8c-0.9-0.5-1.4-1.2-1.5-2v-0.6h13.4v6.5H137.5z M154.2,76l-7.3-9.7h8v-3h-10.4v8.8c0,1.5-0.4,2.5-1.3,3.1
	c-0.4,0.3-1,0.5-1.5,0.5c-0.6,0.1-1.2,0.1-1.7,0.1h-0.5V60h15.9c1.4,0,2.6,0.3,3.4,0.9c0.8,0.6,1.3,1.4,1.3,2.5v3
	c0,1-0.4,1.8-1.1,2.4c-0.8,0.6-1.9,0.9-3.3,1l4.9,6.3h-6.4L154.2,76L154.2,76z M182.8,72.7c0,0.6-0.1,1.1-0.4,1.5
	c-0.2,0.4-0.6,0.7-1,1s-0.9,0.5-1.5,0.6s-1.2,0.2-1.8,0.2h-11.3c-0.6,0-1.2-0.1-1.8-0.2c-0.6-0.2-1-0.4-1.5-0.7
	c-0.4-0.3-0.7-0.6-1-1c-0.2-0.4-0.4-0.8-0.4-1.4v-9.4c0-0.5,0.1-0.9,0.4-1.3c0.2-0.4,0.6-0.8,1-1.1s0.9-0.5,1.5-0.7
	c0.6-0.1,1.1-0.2,1.8-0.2h11.3c1.4,0,2.5,0.3,3.4,0.8c0.9,0.6,1.3,1.4,1.3,2.5V72.7L182.8,72.7z M177.7,63.3h-10.3v9.3h10.3V63.3
	L177.7,63.3z M204,72.6c0,0.5-0.1,1-0.4,1.4s-0.6,0.7-1,1s-0.9,0.5-1.5,0.7s-1.1,0.2-1.8,0.2h-10.1c-0.6,0-1.2-0.1-1.8-0.2
	c-0.6-0.2-1.1-0.4-1.5-0.7c-0.4-0.3-0.7-0.6-1-1c-0.2-0.4-0.4-0.9-0.4-1.4V60h0.6c1.3,0,2.4,0.2,3.3,0.6c0.8,0.4,1.3,1.1,1.3,2.1
	v9.9h9.2V60h5.1L204,72.6L204,72.6z M226.4,66.3c0,1.1-0.5,2-1.6,2.5c-1,0.6-2.4,0.8-4.2,0.8H213c0-0.3,0.1-0.7,0.2-1.1
	c0.1-0.4,0.3-0.8,0.5-1.1c0.2-0.3,0.5-0.6,0.9-0.8c0.4-0.2,0.8-0.3,1.4-0.3h5.3v-3H211v8.9c0,1.5-0.4,2.5-1.3,3.1
	c-0.4,0.3-1,0.5-1.5,0.5c-0.6,0.1-1.2,0.1-1.7,0.1H206V60h15.9c1.4,0,2.5,0.3,3.4,0.9c0.9,0.6,1.3,1.4,1.3,2.5v2.9H226.4z"/>
</svg>
