<svg id="Слой_1" data-name="Слой 1" xmlns="http://www.w3.org/2000/svg" viewBox="0 0 204.29186 204.41442"><defs><style>.cls-1{fill:#223383;}</style></defs><path class="cls-1" d="M122.49642,160.79418c-4.15686,4.17651-7.65846,8.20571-11.68858,11.609-4.6037,3.88767-6.302,7.98379-5.997,14.37914.92682,19.43127-13.33925,35.973-32.45759,40.29028-21.76262,4.91438-46.75945-11.71348-48.48789-36.922a40.56791,40.56791,0,0,1,46.25092-43.22143,4.321,4.321,0,0,0,4.14171-1.42412q35.59142-35.68473,71.19782-71.35436a4.98591,4.98591,0,0,0,1.35166-3.6039c-3.00207-22.90615,11.66849-42.53474,34.42967-46.46514,5.12173-.88442,9.86534-.21583,14.71818.8101,3.55041.75059,4.37388,3.56875,1.77552,6.20257-6.17593,6.26019-12.37144,12.50331-18.68011,18.62864a3.80684,3.80684,0,0,0-1.10274,4.7523c1.53627,4.02618,2.68575,8.2,4.2236,12.22551a4.96784,4.96784,0,0,0,2.53154,2.61621c4.26189,1.61579,8.65578,2.88007,12.944,4.43153a3.046,3.046,0,0,0,3.71137-.86791c6.10986-6.20865,12.30307-12.33524,18.466-18.49173,1.24181-1.24051,2.62614-2.917,4.42124-1.81774a6.7239,6.7239,0,0,1,2.49723,3.87713c6.241,25.07537-15.97636,52.34626-45.09937,48.24875a4.74,4.74,0,0,0-4.58965,1.52912c-5.21151,5.33291-10.54276,10.54877-16.13821,16.11562,2.183,2.18255,4.20339,4.20447,6.226,6.22412,3.4684,3.46336,3.49745,4.132.33022,7.77368-1.752,2.01452-1.84942,4.14818-.26388,5.78109,1.59024,1.63771,3.75795,1.60551,5.78989-.08609,3.895-3.24258,4.369-3.22615,7.967.37036,12.61533,12.61007,25.16408,25.28766,37.87254,37.80311a29.355,29.355,0,0,1,8.84556,16.09163,26.13838,26.13838,0,0,1-6.59238,22.132c-6.06337,6.88691-13.92191,10.31355-23.01072,9.54762a25.28032,25.28032,0,0,1-15.81875-7.16588Q161.56346,200.331,141.02279,179.69c-1.9987-2.00118-1.915-3.50014-.01312-5.6227a18.37114,18.37114,0,0,0,1.46985-1.68323,3.61046,3.61046,0,0,0-.331-4.98236,3.68175,3.68175,0,0,0-5.17571-.42066c-.205.13975-.39682.3-.58784.459-3.9526,3.29048-4.37638,3.29765-7.94674-.32293C126.47229,165.12355,124.59915,163.03842,122.49642,160.79418Zm98.65991-98.17541c-1.02868.836-1.71616,1.30381-2.29583,1.88006C213.80041,69.52918,208.73161,74.5514,203.73,79.63954a4.43728,4.43728,0,0,1-5.15256,1.21388c-6.03288-2.09507-12.10234-4.08649-18.17616-6.061a5.26159,5.26159,0,0,1-3.66868-3.68093q-2.88786-9.00381-5.98563-17.9395a4.76817,4.76817,0,0,1,1.33366-5.58259c5.05068-4.9207,9.99525-9.95049,14.96648-14.95237.5799-.58348,1.06695-1.25927,1.911-2.26722-1.35062-.067-2.07831-.14618-2.80429-.13283a34.0749,34.0749,0,0,0-32.63571,40.723c.49441,2.40046.24949,4.20572-1.5998,6.04718Q114.35174,114.415,76.923,151.96128a6.134,6.134,0,0,1-5.53579,1.80365c-4.49548-.405-9.157-.8528-13.55565-.11914-18.62063,3.10576-30.97938,21.34252-27.48417,39.981,3.49966,18.6623,21.63453,31.15,40.05316,27.58067,19.01059-3.684,31.42713-21.84868,27.54639-40.4629a6.28028,6.28028,0,0,1,1.86381-6.44584q37.12986-36.96471,74.09666-74.09279a7.01367,7.01367,0,0,1,7.04215-2.22585c12.71358,2.35283,23.47217-1.52864,32.0047-11.14113C218.86732,80.17757,221.53435,72.22157,221.15633,62.61877Zm-94.55877,93.7577c1.72069,1.63771,3.05631,2.75842,4.20518,4.04581,1.09463,1.22659,1.94234,1.51308,3.53774.56607a10.32676,10.32676,0,0,1,14.13818,13.98071c-.87286,1.51767-.785,2.34316.45051,3.56872q18.18536,18.03922,36.22837,36.22146c1.44364,1.45551,2.29273,1.49134,3.75673.0051,8.55128-8.6811,17.20478-17.2615,25.81809-25.88158.51495-.51539.98075-1.07988,1.49709-1.65224a5.53916,5.53916,0,0,0-.58885-.93714q-18.87041-18.937-37.80154-37.81312a2.48727,2.48727,0,0,0-2.26449-.17446c-4.8652,2.45161-9.5893,1.93488-13.03343-1.57078-3.37907-3.43943-3.846-8.04043-1.3889-12.82535.28017-.54561.44674-1.57539.14269-1.92313-1.50035-1.71584-3.17692-3.2776-5.08812-5.19083C146.26348,136.72949,136.6047,146.379,126.59756,156.37647Zm67.10158,63.44009c5.91638,3.59518,16.63287.93676,22.38215-5.705,5.14585-5.94469,6.88041-16.358,3.68583-20.2101Q206.74229,206.84986,193.69914,219.81656Z" transform="translate(-23.76439 -23.67045)"/><path class="cls-1" d="M100.829,109.43267l-4.78951,4.78807c-.72006-.68767-1.37383-1.28759-2.00077-1.91436C80.89607,99.16717,67.7843,85.99676,54.57162,72.92837a8.91453,8.91453,0,0,0-4.79128-2.70619c-8.53042-.80243-13.9341-5.141-17.23989-13.02149-2.07056-4.93587-5.17507-9.44774-7.92775-14.08328a3.843,3.843,0,0,1,.67575-5.32883q6.29284-6.20205,12.49512-12.49587c1.64373-1.6586,3.06645-2.02038,5.3506-.6211,6.99965,4.288,14.193,8.26316,21.35852,12.275,1.8675,1.04559,3.23969,2.33866,3.46132,4.52055.83438,8.21445,5.26048,14.14079,11.15587,19.69588,11.28641,10.63489,22.02872,21.847,33.01073,32.80565.64111.63975,1.4061,1.15535,2.3252,1.90039l-4.83262,4.6453c-.69789-.66172-1.36207-1.26338-1.99529-1.896C94.41211,85.425,81.2418,72.19578,67.9738,59.06528c-2.08848-2.06683-3.81-4.22763-4.0334-7.172-.52265-6.88911-4.05193-11.23535-10.41288-13.86941-3.80167-1.57427-7.20142-4.09989-10.87646-6.01643a2.96188,2.96188,0,0,0-2.69116.31729c-2.63874,2.39417-5.05526,5.03109-7.6295,7.49959a2.079,2.079,0,0,0-.44486,3.00415c3.3509,5.72792,6.55524,11.54231,9.96064,17.23688a4.48925,4.48925,0,0,0,2.822,2.02773c8.31528.94694,14.26846,5.481,19.88534,11.41331C75.55842,85.1294,87.10272,96.24193,98.44,107.54946A27.58462,27.58462,0,0,0,100.829,109.43267Z" transform="translate(-23.76439 -23.67045)"/><path class="cls-1" d="M64.465,207.33732c-3.06546.00082-6.13241-.0573-9.19582.02189a4.41249,4.41249,0,0,1-4.31012-2.32663Q46.35338,197.218,41.64019,189.467a4.1064,4.1064,0,0,1-.0341-4.65586c3.179-5.24145,6.19585-10.5858,9.53248-15.7234a5.4358,5.4358,0,0,1,3.80948-2.11219c6.289-.21927,12.5899-.08017,18.88633-.11256a4.29419,4.29419,0,0,1,4.05413,2.32681q4.60158,7.81688,9.33365,15.55666a4.09555,4.09555,0,0,1,.03064,4.65463c-3.182,5.23958-6.21572,10.5738-9.55943,15.70685a5.7002,5.7002,0,0,1-3.7933,2.12968C70.78286,207.54889,67.61334,207.3365,64.465,207.33732Zm-.1567-6.27155c2.80194-.13468,6.11375.60445,8.26263-.64944,2.1557-1.25785,2.91858-4.69785,4.70475-6.83672,3.64372-4.36332,3.11574-7.9796.27824-12.93484-3.268-5.707-6.84336-7.646-13.38978-7.61806-6.20935.02651-9.4754,1.93312-12.60295,7.21432-3.00176,5.06877-3.3405,8.58629-.00793,13.64335C54.82669,198.85162,57.56966,202.99841,64.30834,201.06577Z" transform="translate(-23.76439 -23.67045)"/><path class="cls-1" d="M90.37213,164.88774,86.465,161.19587l74.56688-74.55916,3.73721,3.86309Z" transform="translate(-23.76439 -23.67045)"/><path class="cls-1" d="M161.56242,165.39849l3.82118-4.01671,33.73774,33.81269-4.49267,3.36148C183.94852,187.84632,172.80585,176.67292,161.56242,165.39849Z" transform="translate(-23.76439 -23.67045)"/></svg>