<?xml version="1.0" encoding="utf-8"?>
<!-- Generator: Adobe Illustrator 24.3.0, SVG Export Plug-In . SVG Version: 6.00 Build 0)  -->
<svg version="1.1" id="Слой_1" xmlns="http://www.w3.org/2000/svg" xmlns:xlink="http://www.w3.org/1999/xlink" x="0px" y="0px"
	 viewBox="0 0 255.1 255.1" style="enable-background:new 0 0 255.1 255.1;" xml:space="preserve">
<style type="text/css">
	.st0{display:none;}
	.st1{display:inline;fill:#223383;}
	.st2{fill:#223383;}
</style>
<g class="st0">
	<path class="st1" d="M122.5,160.8c-4.2,4.2-7.7,8.2-11.7,11.6c-4.6,3.9-6.3,8-6,14.4c0.9,19.4-13.3,36-32.5,40.3
		c-21.8,4.9-46.8-11.7-48.5-36.9c-1.8-26.3,20.8-46.9,46.3-43.2c1.8,0.3,2.9-0.2,4.1-1.4C98,121.7,121.8,98,145.5,74.2
		c0.8-0.8,1.5-2.5,1.4-3.6c-3-22.9,11.7-42.5,34.4-46.5c5.1-0.9,9.9-0.2,14.7,0.8c3.6,0.8,4.4,3.6,1.8,6.2
		c-6.2,6.3-12.4,12.5-18.7,18.6c-1.5,1.5-1.9,2.7-1.1,4.8c1.5,4,2.7,8.2,4.2,12.2c0.4,1.1,1.5,2.2,2.5,2.6c4.3,1.6,8.7,2.9,12.9,4.4
		c1.6,0.6,2.6,0.3,3.7-0.9c6.1-6.2,12.3-12.3,18.5-18.5c1.2-1.2,2.6-2.9,4.4-1.8c1.2,0.7,2.1,2.4,2.5,3.9
		c6.2,25.1-16,52.3-45.1,48.2c-2-0.3-3.2,0.1-4.6,1.5c-5.2,5.3-10.5,10.5-16.1,16.1c2.2,2.2,4.2,4.2,6.2,6.2
		c3.5,3.5,3.5,4.1,0.3,7.8c-1.8,2-1.8,4.1-0.3,5.8c1.6,1.6,3.8,1.6,5.8-0.1c3.9-3.2,4.4-3.2,8,0.4c12.6,12.6,25.2,25.3,37.9,37.8
		c4.6,4.5,7.8,9.9,8.8,16.1c1.4,8.2-1,15.8-6.6,22.1c-6.1,6.9-13.9,10.3-23,9.5c-5.9-0.5-11.5-2.9-15.8-7.2
		c-13.8-13.7-27.5-27.4-41.2-41.1c-2-2-1.9-3.5,0-5.6c0.5-0.6,1-1.1,1.5-1.7c1.2-1.7,1.1-3.5-0.3-5c-1.5-1.6-3.3-1.7-5.2-0.4
		c-0.2,0.1-0.4,0.3-0.6,0.5c-4,3.3-4.4,3.3-7.9-0.3C126.5,165.1,124.6,163,122.5,160.8z M221.2,62.6c-1,0.8-1.7,1.3-2.3,1.9
		c-5.1,5-10.1,10.1-15.1,15.1c-1.5,1.5-3.1,1.9-5.2,1.2c-6-2.1-12.1-4.1-18.2-6.1c-1.9-0.6-3.1-1.8-3.7-3.7c-1.9-6-3.9-12-6-17.9
		c-0.8-2.2-0.4-3.9,1.3-5.6c5.1-4.9,10-10,15-15c0.6-0.6,1.1-1.3,1.9-2.3c-1.4-0.1-2.1-0.1-2.8-0.1c-21.1,0.4-36.9,20.1-32.6,40.7
		c0.5,2.4,0.2,4.2-1.6,6c-25,24.9-50,49.9-75,75c-1.6,1.6-3.2,2-5.5,1.8c-4.5-0.4-9.2-0.9-13.6-0.1c-18.6,3.1-31,21.3-27.5,40
		c3.5,18.7,21.6,31.1,40.1,27.6c19-3.7,31.4-21.8,27.5-40.5c-0.5-2.6-0.1-4.5,1.9-6.4c24.8-24.6,49.5-49.3,74.1-74.1
		c2.1-2.1,4.1-2.8,7-2.2c12.7,2.4,23.5-1.5,32-11.1C218.9,80.2,221.5,72.2,221.2,62.6z M126.6,156.4c1.7,1.6,3.1,2.8,4.2,4
		c1.1,1.2,1.9,1.5,3.5,0.6c4.1-2.4,9-1.6,12.4,1.6c3.3,3.2,4.1,8.3,1.8,12.3c-0.9,1.5-0.8,2.3,0.5,3.6c12.1,12,24.2,24.1,36.2,36.2
		c1.4,1.5,2.3,1.5,3.8,0c8.6-8.7,17.2-17.3,25.8-25.9c0.5-0.5,1-1.1,1.5-1.7c-0.2-0.4-0.4-0.7-0.6-0.9
		c-12.6-12.6-25.2-25.3-37.8-37.8c-0.4-0.4-1.7-0.5-2.3-0.2c-4.9,2.5-9.6,1.9-13-1.6c-3.4-3.4-3.8-8-1.4-12.8
		c0.3-0.5,0.4-1.6,0.1-1.9c-1.5-1.7-3.2-3.3-5.1-5.2C146.3,136.7,136.6,146.4,126.6,156.4z M193.7,219.8c5.9,3.6,16.6,0.9,22.4-5.7
		c5.1-5.9,6.9-16.4,3.7-20.2C211.1,202.5,202.4,211.2,193.7,219.8z"/>
	<path class="st1" d="M100.8,109.4c-1.9,1.8-3.2,3.2-4.8,4.8c-0.7-0.7-1.4-1.3-2-1.9C80.9,99.2,67.8,86,54.6,72.9
		c-1.3-1.3-3.1-2.5-4.8-2.7c-8.5-0.8-13.9-5.1-17.2-13c-2.1-4.9-5.2-9.4-7.9-14.1c-1.2-2.1-1-3.7,0.7-5.3c4.2-4.1,8.3-8.3,12.5-12.5
		c1.6-1.7,3.1-2,5.4-0.6c7,4.3,14.2,8.3,21.4,12.3c1.9,1,3.2,2.3,3.5,4.5c0.8,8.2,5.3,14.1,11.2,19.7c11.3,10.6,22,21.8,33,32.8
		c0.6,0.6,1.4,1.2,2.3,1.9c-1.8,1.7-3.2,3.1-4.8,4.6c-0.7-0.7-1.4-1.3-2-1.9C94.4,85.4,81.2,72.2,68,59.1c-2.1-2.1-3.8-4.2-4-7.2
		C63.4,45,59.9,40.7,53.5,38c-3.8-1.6-7.2-4.1-10.9-6c-0.7-0.4-2.1-0.2-2.7,0.3c-2.6,2.4-5.1,5-7.6,7.5c-1,1-1.2,1.8-0.4,3
		c3.4,5.7,6.6,11.5,10,17.2c0.6,0.9,1.8,1.9,2.8,2C53,63,58.9,67.6,64.6,73.5c11,11.6,22.5,22.7,33.9,34
		C99.1,108.2,99.9,108.7,100.8,109.4z"/>
	<path class="st1" d="M64.5,207.3c-3.1,0-6.1-0.1-9.2,0c-1.9,0.1-3.3-0.6-4.3-2.3c-3.1-5.2-6.2-10.4-9.3-15.6c-1-1.6-1-3.1,0-4.7
		c3.2-5.2,6.2-10.6,9.5-15.7c0.7-1.1,2.5-2.1,3.8-2.1c6.3-0.2,12.6-0.1,18.9-0.1c1.8,0,3.1,0.7,4.1,2.3c3.1,5.2,6.2,10.4,9.3,15.6
		c1,1.6,1,3.1,0,4.7c-3.2,5.2-6.2,10.6-9.6,15.7c-0.7,1.1-2.4,2-3.8,2.1C70.8,207.5,67.6,207.3,64.5,207.3z M64.3,201.1
		c2.8-0.1,6.1,0.6,8.3-0.6c2.2-1.3,2.9-4.7,4.7-6.8c3.6-4.4,3.1-8,0.3-12.9c-3.3-5.7-6.8-7.6-13.4-7.6c-6.2,0-9.5,1.9-12.6,7.2
		c-3,5.1-3.3,8.6,0,13.6C54.8,198.9,57.6,203,64.3,201.1z"/>
	<path class="st1" d="M90.4,164.9c-1.3-1.2-2.7-2.5-3.9-3.7c24.9-24.9,49.7-49.7,74.6-74.6c1.2,1.2,2.6,2.6,3.7,3.9
		C140.1,115.2,115.3,140,90.4,164.9z"/>
	<path class="st1" d="M161.6,165.4c1.2-1.3,2.6-2.7,3.8-4c11.2,11.3,22.3,22.4,33.7,33.8c-1.4,1.1-3,2.3-4.5,3.4
		C183.9,187.8,172.8,176.7,161.6,165.4z"/>
</g>
<g>
	<path class="st2" d="M189.1,121.1c5.7,1.1,11.1,1.6,16.2,3.1c24.7,7.3,40.8,30.7,39.2,56.3c-1.6,26.2-21.1,47.9-47,51.4
		c-23.2,3.1-41.6-5.5-54.9-24.9c-1.1-1.7-2.2-2.3-4.2-2.3c-36.9,0.1-73.8,0-110.7,0c-9.3,0-14.4-5-14.4-14.4c0-49,0-98,0-147
		c0-9.3,5.1-14.4,14.4-14.4c49,0,98,0,147,0c9.2,0,14.4,5.3,14.4,14.5c0,24.8,0,49.7,0,74.5C189.1,119.2,189.1,120.3,189.1,121.1z
		 M136.9,195.9c-0.4-1.4-0.7-2.4-0.9-3.4c-2.2-7.6-2.9-15.3-1.7-23c3.6-23.6,20.2-41.3,43.5-46.4c2-0.4,2.4-1.2,2.4-3
		c-0.1-12.6-0.1-25.2,0-37.7c0-2.2-0.8-2.7-2.8-2.6c-13.8,0.1-27.5,0-41.3,0c-0.8,0-1.6,0.1-2.6,0.2c0,7.4,0,14.6,0,21.8
		c0,5.3-3,7.2-7.7,4.9c-7.5-3.7-15-7.4-22.4-11.2c-1.6-0.8-2.9-0.8-4.4,0c-7.4,3.8-14.9,7.5-22.4,11.2c-4.6,2.3-7.7,0.4-7.7-4.7
		c0-6.4,0-12.8,0-19.3c0-0.9-0.1-1.8-0.2-2.9c-1.1,0-1.9,0-2.8,0c-13.5,0-27,0.1-40.5-0.1c-2.4,0-3.1,0.7-3.1,3.1
		c0.1,35.7,0,71.4,0.1,107.2c0,5,1,5.9,5.9,5.9c35.2,0,70.4,0,105.6,0C134.7,195.9,135.7,195.9,136.9,195.9z M235.6,177.3
		c-0.1-25.9-20.8-46.6-46.5-46.5c-25.7,0.1-46.5,20.9-46.4,46.6c0,25.5,21.1,46.3,46.8,46.3C214.9,223.6,235.7,202.6,235.6,177.3z
		 M77.8,95.8c7-3.5,13.5-6.6,19.8-10c2.5-1.3,4.7-1.3,7.2,0c5.5,2.9,11.1,5.6,16.7,8.4c0.9,0.4,1.8,0.8,2.8,1.2
		c0-19.3,0-38.3,0-57.5c-1,0-1.8,0-2.7,0c-13.6,0-27.2,0.1-40.8-0.1c-2.4,0-3.1,0.7-3.1,3.1c0.1,17.1,0.1,34.3,0.1,51.4
		C77.8,93.4,77.8,94.3,77.8,95.8z M180,70.6c0.1-1,0.1-1.8,0.1-2.5c0-8.2,0-16.4,0-24.6c0-4.1-1.4-5.4-5.5-5.4
		c-12.8,0-25.7,0-38.5,0c-0.8,0-1.6,0.1-2.5,0.1c0,10.9,0,21.6,0,32.4C149.1,70.6,164.4,70.6,180,70.6z M22.3,70.6
		c15.6,0,30.9,0,46.4,0c0-10.8,0-21.5,0-32.3c-0.9-0.1-1.6-0.1-2.4-0.1c-12.9,0-25.8,0-38.8,0c-4,0-5.2,1.3-5.2,5.3
		c0,7.5,0,15,0,22.6C22.3,67.4,22.3,68.9,22.3,70.6z"/>
	<path class="st2" d="M101.1,177c-5.9,0-11.8,0-17.7,0c-3.3,0-5.1-1.5-5.2-4.2c-0.1-2.8,1.8-4.7,5-4.7c11.9-0.1,23.8,0,35.7,0
		c3.2,0,5.3,1.9,5.3,4.6c0,2.7-2.1,4.4-5.4,4.4C112.9,177,107,177,101.1,177z"/>
	<path class="st2" d="M183.1,185.4c0.7-1.1,1.1-2.2,1.9-3c6.8-6.9,13.7-13.7,20.6-20.6c0.7-0.7,1.4-1.4,2.3-2c2-1.4,4.3-1.2,5.9,0.6
		c1.4,1.6,1.5,4,0.1,5.8c-0.4,0.5-0.9,1-1.4,1.5c-8.5,8.5-17.1,17.1-25.6,25.6c-3.3,3.3-5.3,3.3-8.5,0c-4.2-4.2-8.4-8.3-12.5-12.5
		c-2.5-2.5-2.8-5.1-0.8-7.1c1.9-1.9,4.7-1.7,7.1,0.7C175.6,177.8,178.9,181.2,183.1,185.4z"/>
</g>
</svg>
